<?xml version="1.0" encoding="UTF-8"?>
<svg id="Layer_1" xmlns="http://www.w3.org/2000/svg" version="1.1" viewBox="0 0 853.43 1057.5">
  <!-- Generator: Adobe Illustrator 29.2.1, SVG Export Plug-In . SVG Version: 2.1.0 Build 116)  -->
  <defs>
    <style>
      .st0 {
        fill: #dd752f;
      }

      .st1 {
        fill: #22c55d;
      }

      .st2 {
        fill: #ff8c3e;
      }

      .st3 {
        fill: #3d7af4;
      }
    </style>
  </defs>
  <g>
    <path class="st3" d="M0,1017.5v-142.23h30.07v58.68h61.04v-58.68h30v142.23h-30v-58.75H30.07v58.75H0Z"/>
    <path class="st3" d="M193.97,1019.58c-10.97,0-20.41-2.23-28.3-6.7-7.89-4.47-13.97-10.81-18.23-19.03-4.26-8.22-6.39-17.95-6.39-29.2s2.13-20.6,6.39-28.89c4.26-8.29,10.27-14.75,18.02-19.38,7.75-4.63,16.86-6.95,27.33-6.95,7.04,0,13.6,1.12,19.69,3.37,6.09,2.25,11.41,5.62,15.97,10.11,4.56,4.49,8.11,10.13,10.66,16.91,2.55,6.78,3.82,14.71,3.82,23.79v8.12h-90.07v-18.33h62.22c0-4.26-.93-8.03-2.78-11.32-1.85-3.29-4.41-5.87-7.67-7.74-3.26-1.88-7.05-2.81-11.35-2.81s-8.46,1.03-11.91,3.09c-3.45,2.06-6.15,4.82-8.09,8.26-1.94,3.45-2.94,7.28-2.99,11.49v17.43c0,5.28.98,9.84,2.95,13.68,1.97,3.84,4.76,6.81,8.37,8.89,3.61,2.08,7.89,3.12,12.85,3.12,3.29,0,6.3-.46,9.03-1.39,2.73-.93,5.07-2.31,7.01-4.17,1.95-1.85,3.43-4.12,4.45-6.81l27.36,1.8c-1.39,6.58-4.23,12.3-8.51,17.19-4.28,4.89-9.79,8.68-16.53,11.39-6.74,2.71-14.5,4.06-23.3,4.06Z"/>
    <path class="st3" d="M291.82,875.27v142.23h-29.58v-142.23h29.58Z"/>
    <path class="st3" d="M315.43,1057.5v-146.67h29.17v17.92h1.32c1.3-2.87,3.18-5.8,5.66-8.79,2.48-2.99,5.72-5.49,9.72-7.5,4-2.01,8.99-3.02,14.97-3.02,7.78,0,14.95,2.03,21.53,6.08,6.57,4.05,11.83,10.14,15.76,18.26,3.93,8.13,5.9,18.3,5.9,30.52s-1.91,21.93-5.73,30.11c-3.82,8.17-9,14.35-15.56,18.54-6.55,4.19-13.88,6.29-21.98,6.29-5.74,0-10.61-.95-14.62-2.85-4.01-1.9-7.28-4.29-9.83-7.19-2.55-2.89-4.49-5.82-5.83-8.79h-.9v57.09h-29.58ZM344.39,964.16c0,6.34.88,11.88,2.64,16.6,1.76,4.72,4.31,8.39,7.64,11.01,3.33,2.62,7.38,3.92,12.15,3.92s8.89-1.33,12.22-3.99c3.33-2.66,5.87-6.37,7.6-11.11,1.74-4.75,2.6-10.22,2.6-16.42s-.86-11.57-2.57-16.25c-1.71-4.68-4.24-8.33-7.57-10.97-3.33-2.64-7.43-3.96-12.29-3.96s-8.88,1.27-12.19,3.82c-3.31,2.55-5.85,6.16-7.6,10.83-1.76,4.68-2.64,10.19-2.64,16.53Z"/>
    <path class="st3" d="M558.63,875.27v142.23h-25.97l-61.88-89.52h-1.04v89.52h-30.07v-142.23h26.39l61.39,89.45h1.25v-89.45h29.93Z"/>
    <path class="st3" d="M631.06,1019.58c-10.79,0-20.11-2.3-27.95-6.91-7.85-4.61-13.9-11.04-18.16-19.31-4.26-8.26-6.39-17.86-6.39-28.79s2.13-20.66,6.39-28.93c4.26-8.26,10.31-14.7,18.16-19.31,7.85-4.61,17.16-6.91,27.95-6.91s20.1,2.3,27.95,6.91c7.85,4.61,13.9,11.04,18.16,19.31,4.26,8.26,6.39,17.91,6.39,28.93s-2.13,20.52-6.39,28.79c-4.26,8.26-10.31,14.7-18.16,19.31-7.85,4.61-17.17,6.91-27.95,6.91ZM631.2,996.66c4.91,0,9-1.4,12.29-4.2,3.29-2.8,5.78-6.63,7.47-11.49,1.69-4.86,2.53-10.39,2.53-16.6s-.84-11.74-2.53-16.6c-1.69-4.86-4.18-8.7-7.47-11.53-3.29-2.82-7.39-4.24-12.29-4.24s-9.11,1.41-12.47,4.24c-3.36,2.82-5.88,6.67-7.57,11.53-1.69,4.86-2.53,10.39-2.53,16.6s.84,11.74,2.53,16.6c1.69,4.86,4.21,8.69,7.57,11.49,3.36,2.8,7.51,4.2,12.47,4.2Z"/>
    <path class="st3" d="M723.91,1017.5l-29.03-106.67h29.93l16.53,71.67h.97l17.22-71.67h29.38l17.5,71.25h.9l16.25-71.25h29.86l-28.96,106.67h-31.32l-18.33-67.09h-1.32l-18.33,67.09h-31.25Z"/>
  </g>
  <g>
    <path class="st3" d="M587.94,59.43C541.07,22.26,481.83,0,417.37,0,265.61,0,142.58,123.02,142.58,274.78s123.02,274.78,274.78,274.78c23.55,0,46.4-2.97,68.21-8.54,118.76-30.34,206.57-138.03,206.57-266.24,0-87.29-40.75-165.02-104.21-215.35Z"/>
    <path class="st1" d="M526.59,252.6c0-30.51-24.74-55.25-55.25-55.25-21.41,0-39.94,12.2-49.11,30.01-9.17-17.81-27.7-30.01-49.11-30.01-30.51,0-55.25,24.74-55.25,55.25,0,16.32,7.11,30.93,18.36,41.05l-.05.03,69.95,61.18c9.22,8.06,22.98,8.06,32.2,0l69.95-61.18-.05-.03c11.25-10.11,18.36-24.73,18.36-41.05Z"/>
    <path class="st2" d="M141.15,216.49s28.8.17,39.84,48.77c0,0,37.84-12.5,50.8,72.15,0,0,8.15,64.76,15.18,85.41,5.7,16.77,4.27,28.14,22.29,42.53,6.75,5.39,16.76.56,16.51-8.08-.3-10.38-1.54-24.67-5.1-41.81-7.65-36.83-12.46-68.48,3.4-70.69,4.93-.69,30.92,4.4,42.64,75.1,0,0,1.54,45.65,22.89,64.05s147.62,65.64,137.68,154.61c-8.47,75.8-1.1,147.99-85.51,187.19,0,0-49.3,18.78-35.64-27.51,13.66-46.29,14.72-75.45.75-106.13-17.66-38.8-59.21-62.92-82.84-74-15.49-7.26-30.16-16.06-43.78-26.42-30.84-23.47-79.86-64.62-98.47-101.59-28.03-55.68-76.59-167.56-88.63-176.33-15-10.92,8.56-37.43,46.85.86,17.83,17.83,31.19,40.15,40.38,51.04,3.97,4.71,11.57.97,10.28-5.05l-9.06-79.86s-21.15-67.23-.45-64.23Z"/>
    <path class="st0" d="M159.59,412.13s21.29,101.24,41.09,104.92c0,0-46.51-29.93-42.46-93.98"/>
    <path class="st0" d="M310.57,632.6l83.15,46.01c4.23,2.34,6.04,7.47,4.21,11.94l-2.9,7.13c-2.71,6.66-11.53,8.05-16.14,2.52-16.43-19.68-49.05-57.05-68.32-67.6Z"/>
    <path class="st0" d="M178.04,285.13l14.98,127s.48,64.05,30.3,80.62l-22.64-68.17-22.64-139.45Z"/>
    <path class="st0" d="M153.75,372.66l9.94,67.09-22.09-67.37,8.62-15.74c.45,3.94,3.2,12.96,3.53,16.02Z"/>
    <path class="st0" d="M285.76,457.28s8.24,45.42,24.8,53.15c0,0-49.55-19.79-24.8-53.15Z"/>
  </g>
</svg>